Coordinates
version=1
nRows=10
nColumns=34
inDegrees=yes

Units are S.I. units (second, meters, Newtons, ...)
If the header above contains a line with 'inDegrees', this indicates whether rotational values are in degrees (yes) or radians (no).

endheader
time	pelvis_tilt	pelvis_list	pelvis_rotation	pelvis_tx	pelvis_ty	pelvis_tz	hip_flexion_r	hip_adduction_r	hip_rotation_r	knee_angle_r	ankle_angle_r	subtalar_angle_r	mtp_angle_r	hip_flexion_l	hip_adduction_l	hip_rotation_l	knee_angle_l	ankle_angle_l	subtalar_angle_l	mtp_angle_l	lumbar_extension	lumbar_bending	lumbar_rotation	arm_flex_r	arm_add_r	arm_rot_r	elbow_flex_r	pro_sup_r	arm_flex_l	arm_add_l	arm_rot_l	elbow_flex_l	pro_sup_l
      0.00000000	      3.47731707	      3.67709523	      6.57241328	      0.19424042	      0.98655877	     -0.04996590	     -5.87616873	     -0.22606112	      0.78383235	      3.94483394	      9.46363269	      5.40581192	      0.00000000	      1.73885168	     -0.13647600	     -0.34493378	     18.68904171	      6.11395662	     -3.79780340	      0.00000000	    -11.26793514	     -0.19136190	     -3.81446110	      7.85007664	     -8.93756729	     29.57955875	     20.79949277	     71.06748049	      1.99005931	     -7.91812068	     18.29844459	     25.65916285	     62.92020537
      0.01666670	      2.08423802	      3.40151793	      5.57597522	      0.19626100	      0.98427256	     -0.05154419	     -5.07212461	     -0.08934187	      3.76946097	      2.53886833	      8.27506891	      4.49661576	      0.00000000	      3.03754773	      0.36453800	     -0.28151773	     18.33517278	      5.69160521	     -3.01399739	      0.00000000	     -8.46362878	      0.03678871	     -2.02503144	      7.04108574	     -9.19583390	     27.07828932	     20.28963559	     71.01584444	      1.84723835	     -7.05647336	     18.23540908	     24.78272518	     63.64664878
      0.03333330	      0.69862978	      3.13314840	      5.05891311	      0.19923000	      0.98109187	     -0.05225136	     -4.19515823	      0.15451334	      3.44848729	      1.41411398	      7.62522597	      4.97047981	      0.00000000	      4.57061715	      0.58291830	     -0.54736057	     18.01158557	      5.93971782	     -1.88535455	      0.00000000	     -6.45734383	     -0.04129906	     -0.98478940	      6.19572464	     -8.77992471	     24.77397965	     20.38125769	     71.05883285	      1.59739791	     -6.96799549	     17.98914915	     24.78953578	     64.18996861
      0.05000000	      0.87350424	      3.29912574	      5.03759788	      0.20107309	      0.98234632	     -0.05398464	     -4.67109038	     -0.00805206	      3.45136900	      0.78468083	      7.77656265	      5.72409267	      0.00000000	      4.09440890	      1.19115762	     -0.10644032	     17.18794686	      6.05152489	     -1.70000147	      0.00000000	     -6.65942328	     -0.34911304	      0.16057680	      4.62212352	     -7.98460717	     15.67932607	     22.01944548	     71.91672483	      2.04021345	     -6.77968610	     16.87850690	     24.40881257	     66.61523582
      0.06666670	      0.81443939	      3.17530861	      4.85577022	      0.20357847	      0.98064758	     -0.05513433	     -4.79837749	      0.07629272	      3.60229987	      0.62397730	      7.74133543	      5.71743972	      0.00000000	      3.90802204	      1.45520849	      0.31236763	     16.43022208	      6.14471576	     -1.33324609	      0.00000000	     -6.25816327	     -0.17204505	      0.44555518	      4.37182750	     -8.03790092	     15.67634466	     21.95950926	     72.02865375	      1.85267319	     -6.78614483	     16.88293111	     24.46545520	     66.69364020
      0.08333330	      0.80560290	      3.12014623	      4.76865451	      0.20292591	      0.98243004	     -0.05762412	     -4.91427836	      0.02467855	      4.10490672	      0.36000254	      7.11046639	      4.85754379	      0.00000000	      3.83491957	      1.67393075	      0.12263397	     15.86194107	      6.53130789	      0.16736446	      0.00000000	     -6.08183467	     -0.07000773	      1.40013332	      3.80116199	     -8.25492081	     15.21874700	     22.15753895	     73.23293399	      2.11372757	     -6.75706170	     16.96016060	     24.68736413	     67.75226034
      0.10000000	      0.77809721	      3.05096353	      4.92514293	      0.20462491	      0.97984284	     -0.05927144	     -5.00071724	     -0.03253460	      4.04654308	      0.21085689	      6.96608549	      4.80166841	      0.00000000	      3.68182897	      1.86723436	      0.46252410	     15.11414037	      6.45976760	      0.33369501	      0.00000000	     -5.78303911	      0.02090840	      1.41572351	      3.68215971	     -8.33672338	     15.19393176	     22.14469349	     73.33239843	      2.12472451	     -6.75899032	     16.97457720	     24.70841174	     67.85056020
      0.11666670	      0.82367379	      2.93743624	      5.05148802	      0.20799689	      0.97444780	     -0.06111934	     -5.25915129	     -0.03580480	      3.92468739	      0.12704105	      6.84436836	      4.60668289	      0.00000000	      3.44225328	      1.93598203	      0.58472324	     14.60052767	      6.62098638	      0.29961979	      0.00000000	     -5.40667692	      0.14309750	      1.46187275	      3.47357006	     -8.40424614	     15.21209917	     22.14796593	     73.43566532	      2.09585851	     -6.77958919	     17.00224520	     24.73526962	     67.95681894
      0.13333330	      0.83551205	      2.88923897	      5.23255312	      0.21013863	      0.97595439	     -0.06363317	     -5.41373358	     -0.09699771	      3.78563249	      0.12516497	      6.73141468	      4.33042722	      0.00000000	      3.07180123	      2.04459204	      0.78363783	     14.06229576	      6.58082524	      0.31462121	      0.00000000	     -4.98240949	      0.19240371	      1.50736929	      3.26677680	     -8.43976145	     15.26516681	     22.20010392	     73.54629030	      2.07509663	     -6.78251138	     17.05828672	     24.77271962	     68.07578948
      0.15000000	      0.84646975	      2.76478404	      5.38701857	      0.21228920	      0.97613360	     -0.06651014	     -5.52474103	     -0.07552029	      3.78186137	      0.08405577	      6.70598985	      4.18911671	      0.00000000	      2.67839265	      2.08831296	      0.92630866	     13.54568107	      6.64313261	      0.28473734	      0.00000000	     -4.53167504	      0.26364603	      1.50396819	      3.17610405	     -8.46498261	     15.30091597	     22.26480133	     73.60795679	      2.12985568	     -6.84033685	     17.08851281	     24.81822144	     68.14497399
